<svg xmlns="http://www.w3.org/2000/svg" width="604" height="376" viewBox="0 0 604 376" fill="none">
<path d="M141.602 0.899454C146.502 0.499454 151.702 0.699448 156.602 0.799448C167.302 0.999448 178.102 1.59945 188.802 2.39945C250.102 6.29945 310.602 18.8995 372.002 21.4995C423.502 23.6995 474.802 19.9994 526.102 15.7994C544.102 14.1994 562.102 12.7995 580.202 11.5995C588.102 11.0995 595.902 10.2995 603.802 10.0995L603.902 375.299C589.302 374.599 574.502 375.099 559.802 374.999L474.202 375.099L0.301752 375.299C-0.0982479 361.799 0.201746 348.199 0.201746 334.699V259.599V18.5995C8.80175 16.9995 17.6018 15.8995 26.2018 14.4995C44.6018 11.4995 62.9017 8.29946 81.4017 5.99946C101.402 3.49946 121.502 2.19945 141.602 0.899454Z" fill="#A03639"></path>
<path d="M436.099 119.1L430.599 127.3V154.7H412.699V65.5H430.599V104.4L454.399 65.5H471.999L446.999 105.2L471.899 154.6H453.499L436.099 119.1Z" fill="white"></path>
<path d="M502.298 154.7H483.898V65.5H499.798V118.9L518.198 65.5H540.698V154.7H524.598V90.1L502.298 154.7Z" fill="white"></path>
<path d="M345.297 65.5H400.597V78.2H381.897V154.7H363.997V78.2H345.297V65.5Z" fill="white"></path>
<path d="M294.9 154.7H276.5V65.5H292.5V118.9L310.9 65.5H333.4V154.7H317.3V90.1L294.9 154.7Z" fill="white"></path>
<path d="M225.9 154.7H208V65.5H264.5V154.7H246.3V78.2H226V154.7H225.9Z" fill="white"></path>
<path d="M195.997 154.7H177.897L174.797 138.5H152.797L149.697 154.7H133.297L151.497 65.5H177.697L195.997 154.7ZM155.197 126.4H172.497L163.897 81.3L155.197 126.4Z" fill="white"></path>
<path d="M82.7984 154.7H64.8984V65.5H82.7984V103.7H103.098V65.5H121.298V154.7H103.098V116.5H82.7984V154.7Z" fill="white"></path>
<path d="M500.502 248.901H530.802V265.101H500.502V298.301H538.602V314.501H478.402V201.201H538.602V217.401H500.502V248.901Z" fill="white"></path>
<path d="M400.102 201.201H468.402V217.401H445.302V314.601H423.202V217.401H400.102V201.201Z" fill="white"></path>
<path d="M392.101 272.2V287.3C392.101 296.5 389.301 303.5 383.701 308.5C378.201 313.4 370.001 315.8 359.201 315.8C348.401 315.8 340.101 313.4 334.501 308.5C329.001 303.5 326.301 296.5 326.301 287.3V228.4C326.301 219.2 329.001 212.2 334.501 207.3C340.101 202.3 348.401 199.9 359.201 199.9C370.001 199.9 378.201 202.4 383.701 207.3C389.301 212.2 392.101 219.2 392.101 228.4V239.4H371.201V227.3C371.201 223.2 370.101 220.3 368.001 218.7C366.001 217 363.201 216.1 359.801 216.1C356.301 216.1 353.501 217 351.401 218.7C349.401 220.3 348.401 223.2 348.401 227.3V288.5C348.401 292.6 349.401 295.5 351.401 297.1C353.501 298.7 356.401 299.5 359.801 299.5C363.301 299.5 366.001 298.7 368.001 297.1C370.101 295.5 371.201 292.6 371.201 288.5V272.3H392.101V272.2Z" fill="white"></path>
<path d="M277 248.901H307.3V265.101H277V298.301H315.1V314.501H255V201.201H315.2V217.401H277V248.901Z" fill="white"></path>
<path d="M193.1 281.6L208.2 201.1H238.9V314.5H218V233.2L202.7 314.5H181.8L165.3 234.3V314.5H146V201.2H176.7L193.1 281.6Z" fill="white"></path>
<path d="M98.1008 201.201C109.601 201.201 117.901 203.401 123.001 207.701C128.201 212.001 130.801 218.601 130.801 227.301V231.301C130.801 237.101 129.701 241.901 127.401 245.701C125.101 249.501 121.501 252.301 116.601 254.101C122.601 255.901 126.801 259.001 129.201 263.201C131.701 267.301 133.001 272.401 133.001 278.401V287.601C133.001 296.301 130.201 303.001 124.601 307.701C119.001 312.201 110.601 314.501 99.5008 314.501H64.8008V201.201H98.1008ZM86.9008 263.501V298.301H99.5008C103.201 298.301 106.101 297.501 107.901 295.901C109.901 294.301 110.901 291.401 110.901 287.201V277.301C110.901 272.001 109.801 268.401 107.501 266.401C105.401 264.501 101.701 263.501 96.7008 263.501H86.9008ZM86.9008 217.301V247.301H95.5008C99.6008 247.301 102.901 246.401 105.101 244.701C107.501 243.001 108.701 239.801 108.701 235.301V229.001C108.701 224.901 107.801 221.901 105.901 220.101C104.201 218.301 101.301 217.301 97.5008 217.301H86.9008Z" fill="white"></path>
</svg>