<svg width="24" height="26" viewBox="0 0 24 26" fill="none" xmlns="http://www.w3.org/2000/svg">
<path d="M11.8008 9.4502C11.8008 9.4502 9.70078 10.4502 8.30078 11.9502C8.50078 13.5502 9.10081 15.1502 9.70081 16.1502C11.1008 16.3502 12.7008 16.3502 14.1008 16.1502C14.5008 15.3502 15.1008 14.2502 15.5008 12.0502C14.3008 10.7502 12.8008 9.9502 11.8008 9.4502Z" fill="black"/>
<path d="M12.0016 2.25C6.00156 2.25 1.10156 7.14999 1.10156 13.15C1.10156 19.15 6.00156 24.05 12.0016 24.05C18.0016 24.05 22.9016 19.15 22.9016 13.15C22.9016 7.14999 18.0016 2.25 12.0016 2.25ZM19.7016 19.45C19.8016 18.75 19.8015 18.15 19.8015 18.15C19.3015 18.25 17.5016 18.95 16.2016 19.15C15.6016 20.25 14.4016 21.85 14.2016 22.15C14.3016 22.25 14.9016 22.45 15.4016 22.55C14.3015 22.95 13.2016 23.15 12.0016 23.15C10.8016 23.15 9.60156 22.95 8.50156 22.45C9.20156 22.35 9.80154 22.15 9.80154 22.15C9.50154 21.75 8.30157 20.25 7.70157 19.05C6.50157 18.85 4.60157 18.25 4.20157 18.05V19.15C2.90157 17.45 2.20157 15.45 2.20157 13.15V12.85C2.50157 13.35 2.80154 13.75 2.80154 13.75C3.10154 13.35 4.10156 11.75 5.10156 10.75C4.90156 9.55 4.90155 7.54999 4.90155 7.14999C4.80155 7.14999 4.40156 7.24998 4.00156 7.44998C5.30156 5.64998 7.10154 4.24999 9.30154 3.64999C8.80154 4.14999 8.50156 4.54999 8.50156 4.54999C9.00156 4.74999 10.8016 5.25001 12.1016 5.85001C13.2016 5.25001 15.1016 4.74999 15.5016 4.64999C15.4016 4.54999 15.1015 4.04999 14.8015 3.64999C17.1015 4.24999 19.0016 5.64999 20.4016 7.64999C19.8015 7.34999 19.3015 7.25 19.3015 7.25C19.3015 7.75 19.4016 9.64999 19.2016 11.05C20.1016 11.95 21.2015 13.55 21.4016 13.85C21.5016 13.75 21.8016 13.35 22.1016 12.95V13.35C21.9016 15.55 21.1016 17.75 19.7016 19.45Z" fill="black"/>
</svg>
