<svg width="19" height="19" viewBox="0 0 19 19" fill="none" xmlns="http://www.w3.org/2000/svg">
<path d="M1.19897 6.76172H17.6287M4.85002 1.28516V3.11068M13.9776 1.28516V3.11068M3.93726 9.50001H5.76278M8.50106 9.50001H10.3266M13.0649 9.50001H14.8904M3.93726 12.2383H5.76278M8.50106 12.2383H10.3266M13.0649 12.2383H14.8904M3.93726 14.9766H5.76278M8.50106 14.9766H10.3266M13.0649 14.9766H14.8904M4.11981 17.7149H14.7078C15.7302 17.7149 16.2415 17.7149 16.6319 17.5159C16.9754 17.3409 17.2547 17.0616 17.4297 16.7181C17.6287 16.3276 17.6287 15.8164 17.6287 14.794V6.03151C17.6287 5.00912 17.6287 4.49793 17.4297 4.10743C17.2547 3.76393 16.9754 3.48466 16.6319 3.30965C16.2415 3.11068 15.7302 3.11068 14.7078 3.11068H4.11981C3.09743 3.11068 2.58623 3.11068 2.19573 3.30965C1.85223 3.48466 1.57296 3.76393 1.39795 4.10743C1.19897 4.49793 1.19897 5.00912 1.19897 6.03151V14.794C1.19897 15.8164 1.19897 16.3276 1.39795 16.7181C1.57296 17.0616 1.85223 17.3409 2.19573 17.5159C2.58623 17.7149 3.09742 17.7149 4.11981 17.7149Z" stroke="black" stroke-width="1.54028" stroke-linecap="round"/>
</svg>
