<svg width="15" height="19" viewBox="0 0 15 19" fill="none" xmlns="http://www.w3.org/2000/svg">
<path d="M7.72511 18.8881C6.42812 17.7818 5.22593 16.569 4.13111 15.2623C2.48814 13.3 0.53711 10.3775 0.53711 7.59269C0.535654 4.68416 2.28713 2.06141 4.97423 0.948306C7.66133 -0.164799 10.7544 0.451146 12.8101 2.50872C14.1619 3.85453 14.9192 5.68519 14.9131 7.59269C14.9131 10.3775 12.9621 13.3 11.3191 15.2623C10.2243 16.569 9.02209 17.7818 7.72511 18.8881ZM7.72511 2.4584C4.89093 2.4618 2.59422 4.75851 2.59082 7.59269C2.59082 8.79 3.13198 10.8632 5.70733 13.9448C6.34207 14.7027 7.01556 15.4273 7.72511 16.1156C8.43471 15.4281 9.10853 14.7046 9.74391 13.9479C12.3182 10.8622 12.8594 8.78897 12.8594 7.59269C12.856 4.75851 10.5593 2.4618 7.72511 2.4584ZM7.72511 10.6733C6.02376 10.6733 4.64454 9.29404 4.64454 7.59269C4.64454 5.89133 6.02376 4.51212 7.72511 4.51212C9.42646 4.51212 10.8057 5.89133 10.8057 7.59269C10.8057 8.4097 10.4811 9.19326 9.9034 9.77098C9.32568 10.3487 8.54212 10.6733 7.72511 10.6733Z" fill="#E62D3C"/>
</svg>
