<svg width="73" height="74" viewBox="0 0 73 74" fill="none" xmlns="http://www.w3.org/2000/svg">
<path fill-rule="evenodd" clip-rule="evenodd" d="M36.5003 2.62793C55.4836 2.62793 70.8725 18.0168 70.8725 37.0001C70.8725 55.9834 55.4836 71.3723 36.5003 71.3723C17.5171 71.3723 2.12817 55.9834 2.12817 37.0001C2.12817 18.0168 17.5171 2.62793 36.5003 2.62793Z" fill="#002E60"/>
<path fill-rule="evenodd" clip-rule="evenodd" d="M36.5004 12.6953C49.9235 12.6953 60.8052 23.577 60.8052 37.0001C60.8052 50.4233 49.9235 61.3049 36.5004 61.3049C23.0772 61.3049 12.1956 50.4233 12.1956 37.0001C12.1956 23.577 23.0772 12.6953 36.5004 12.6953ZM36.5004 14.3595C49.0044 14.3595 59.141 24.4961 59.141 37.0001C59.141 49.5042 49.0044 59.6408 36.5004 59.6408C23.9963 59.6408 13.8597 49.5042 13.8597 37.0001C13.8597 24.4961 23.9963 14.3595 36.5004 14.3595Z" fill="#FEFEFE"/>
<path fill-rule="evenodd" clip-rule="evenodd" d="M36.5 15.8232C48.1956 15.8232 57.6768 25.3044 57.6768 37C57.6768 48.6956 48.1956 58.1768 36.5 58.1768C24.8044 58.1768 15.3232 48.6956 15.3232 37C15.3232 25.3044 24.8044 15.8232 36.5 15.8232Z" fill="#7BB1DD"/>
<path fill-rule="evenodd" clip-rule="evenodd" d="M54.5543 19.79L18.4666 19.748C17.1611 23.0331 16.4523 29.6138 16.479 33.351C16.5275 40.1651 18.2682 46.0894 22.1783 51.5511C22.7765 52.3866 23.3862 53.1411 24.0501 53.8411C26.1356 56.0398 28.0119 57.7232 30.8363 59.5099C31.5937 59.9891 35.6216 62.3772 36.4453 62.4076C37.8166 62.4585 43.0961 58.8664 44.4789 57.9088C52.6263 52.2664 56.4078 42.4558 56.5194 33.5287C56.5689 29.5715 55.8611 23.3315 54.5543 19.79Z" fill="#002E60"/>
<path fill-rule="evenodd" clip-rule="evenodd" d="M53.2989 21.2007L19.8098 21.2052C18.6983 23.3088 18.0997 31.4028 18.183 34.0617C18.3162 38.3175 19.2337 42.4336 20.8461 45.9538C22.6424 49.8758 24.2675 51.8227 27.1859 54.6724C28.6874 56.1387 34.8234 60.7275 36.4641 60.7948C37.4211 60.8341 42.6254 57.4398 43.751 56.5624C45.4591 55.2311 48.0249 52.491 49.3343 50.745C54.3961 43.9956 55.5107 35.5789 54.4682 27.4869C54.1861 25.2968 53.5817 23.2393 53.2989 21.2007Z" fill="#FEFEFE"/>
<mask id="mask0_67_926" style="mask-type:luminance" maskUnits="userSpaceOnUse" x="18" y="21" width="37" height="40">
<path d="M53.2989 21.2007L19.8098 21.2052C18.6983 23.3088 18.0997 31.4028 18.183 34.0617C18.3162 38.3175 19.2337 42.4336 20.8461 45.9538C22.6424 49.8758 24.2675 51.8227 27.1859 54.6724C28.6874 56.1387 34.8234 60.7275 36.4641 60.7948C37.4211 60.8341 42.6254 57.4398 43.751 56.5624C45.4591 55.2311 48.0249 52.491 49.3343 50.745C54.3961 43.9956 55.5107 35.5789 54.4682 27.4869C54.1861 25.2968 53.5817 23.2393 53.2989 21.2007Z" fill="white"/>
</mask>
<g mask="url(#mask0_67_926)">
<path fill-rule="evenodd" clip-rule="evenodd" d="M20.0749 36.5297C19.0523 36.9716 17.6181 37.5179 16.1839 38.0641C15.688 38.825 15.389 39.6674 15.7287 40.4147C16.0685 41.162 17.0467 41.8141 18.8063 42.2218C20.1322 42.5289 21.9019 42.6973 25.0211 42.7426C25.214 42.5021 25.407 42.2616 25.8773 42.0168C26.3476 41.7719 27.0953 41.5227 27.6983 41.2333C28.3013 40.9438 28.7596 40.6142 28.84 40.2283C28.9204 39.8424 28.6229 39.4002 28.3094 38.962C27.9958 38.5238 27.6661 38.0897 27.2641 37.4827C26.8621 36.8756 26.3878 36.0957 26.0702 35.6133C25.7526 35.131 25.5919 34.946 25.1256 34.8978C24.6592 34.8495 23.8874 34.938 23.3688 35.0466C22.8502 35.1551 22.5849 35.2837 22.1467 35.5169C21.7085 35.7501 21.0975 36.0877 20.0749 36.5297Z" fill="#A8C9E8"/>
<path fill-rule="evenodd" clip-rule="evenodd" d="M23.4768 33.4771L23.3888 28.6036L25.3952 27.5939C25.4062 28.4416 25.4901 31.1966 25.4901 32.0278C25.4901 32.3372 25.4923 32.481 25.4897 32.6151C25.4822 33.0048 25.3359 33.3485 25.0911 33.6684L28.3238 31.869C28.162 31.791 27.8229 31.7068 27.6895 31.302C27.7396 30.0764 27.6087 26.8333 27.6087 25.5973C27.6087 24.3685 27.6423 23.8399 27.6485 23.6741C27.667 23.188 27.9042 23.1632 28.0579 23.0376C28.1695 22.9466 28.2309 22.7282 28.2686 22.5303L24.7437 22.537C24.7036 22.537 24.7905 22.8706 24.9085 23.0417C25.0472 23.2426 25.175 23.2448 25.1685 23.7223C25.1622 24.3619 25.2102 25.303 25.2146 25.9427L23.5109 26.7097L23.4454 23.7528C23.4115 23.2843 23.696 23.1415 23.7915 22.943C23.8594 22.8023 23.8604 22.5563 23.8604 22.5563L20.3986 22.5325C20.3582 22.5322 20.3495 22.638 20.5367 22.9714C20.7062 23.2729 20.9962 23.1949 20.9603 24.2042L21.0461 34.9549C20.8927 35.675 20.9284 35.5733 20.0857 36.2227L24.1107 34.1854C23.9398 34.2322 23.4745 34.2231 23.4768 33.4771Z" fill="#E11F13"/>
<path fill-rule="evenodd" clip-rule="evenodd" d="M32.1467 27.633L33.1969 27.6342L32.6428 25.3757L32.1467 27.633ZM36.5307 30.1808C36.3308 30.2072 35.9937 30.2672 35.8108 29.9184L33.8858 23.3575C33.7812 22.9591 34.0487 22.9488 34.1288 22.786C34.1873 22.6675 34.1817 22.5709 34.1727 22.543L30.9496 22.5654C30.9551 22.7178 30.9613 22.7447 31.0299 22.8448C31.1087 22.9598 31.3587 22.9791 31.2666 23.3498L29.1456 31.8789C29.0953 32.0815 28.9825 32.2627 28.6799 32.5866C29.4677 32.3028 30.6482 31.9349 31.483 31.7636C31.1709 31.7987 31.424 31.9019 31.3728 31.6728L31.9123 29.3181L33.5688 29.334C33.6431 29.609 34.0103 30.7157 34.0612 31.0128C34.1257 31.346 34.1906 31.6024 33.8579 31.7947C34.5731 31.9727 35.2164 31.3792 36.5307 30.1808Z" fill="#E11F13"/>
<path fill-rule="evenodd" clip-rule="evenodd" d="M40.5514 26.5686C41.0928 26.584 41.5212 26.5245 41.8378 26.22C42.5167 25.5674 42.5042 24.5238 41.8681 23.9077C41.5095 23.5603 41.1564 23.5352 40.5533 23.5253L40.5514 26.5686ZM41.4128 30.1178C41.0129 29.7319 40.7589 29.3663 40.6198 28.8946L40.6239 27.5674C41.7416 27.4528 42.8497 27.8543 43.9475 26.7501C44.7633 25.9295 45.0122 24.6025 44.4957 23.6017C43.9529 22.5504 43.1141 22.3504 41.6267 22.3505C40.2359 22.3507 38.8429 22.358 37.4524 22.3491C37.3736 23.3026 38.1165 23.1942 38.2582 23.5479L38.2662 28.6631C38.2666 28.8459 38.1814 28.9514 37.9991 29.0526C39.2112 29.1979 40.4163 29.74 41.4128 30.1178Z" fill="#E11F13"/>
<path fill-rule="evenodd" clip-rule="evenodd" d="M45.7466 25.4274C46.3451 25.4483 46.4572 25.2711 46.6441 24.8244C46.899 24.2153 47.0681 24.3525 47.7965 24.3662L47.7672 33.0506C47.463 33.2472 46.6536 33.2864 46.4878 33.2211C47.9267 33.986 49.3093 34.5798 51.2141 35.755C51.0048 35.5472 50.4636 34.7045 50.3023 33.9503C50.3045 32.9557 50.2616 24.8713 50.3139 24.4071L50.8867 24.3999C50.8971 24.4189 50.9116 24.4189 50.9161 24.4359L51.1055 24.6815C51.5268 25.4488 51.6307 26.6728 52.735 26.5916L52.7354 22.3613L45.7531 22.3491L45.7466 25.4274Z" fill="#E11F13"/>
<path fill-rule="evenodd" clip-rule="evenodd" d="M19.0466 36.7445C19.6949 36.4037 20.633 35.9659 22.183 35.1798C23.733 34.3935 25.8949 33.259 27.3021 32.4639C28.7091 31.6687 29.3612 31.2132 29.9151 30.8827C30.469 30.5521 30.9246 30.3466 31.2999 30.2482C31.6751 30.15 31.9699 30.159 32.3095 30.3779C32.6489 30.5968 33.033 31.0255 33.3144 31.2935C33.5958 31.5615 33.7745 31.6688 33.9443 31.7314C34.114 31.7938 34.2748 31.8118 34.4625 31.7537C34.65 31.6956 34.8645 31.5615 35.0744 31.4007C35.2843 31.2399 35.4898 31.0524 35.9723 30.6458C36.4547 30.2394 37.214 29.614 37.6563 29.288C38.0985 28.9618 38.2236 28.935 38.371 28.8681C38.5184 28.8011 38.6881 28.6938 38.9695 28.7474C39.251 28.801 39.6441 29.0155 40.2694 29.3996C40.8948 29.7837 41.7524 30.3377 42.9183 31.0703C44.0841 31.8028 45.5582 32.714 46.6213 33.2947C47.6844 33.8754 48.3365 34.1256 48.9396 34.4025C49.5426 34.6794 50.0964 34.9832 51.2143 35.7553C52.3321 36.5273 54.0139 37.7676 55.1029 38.6478C56.1918 39.5278 56.688 40.0477 56.9185 40.7388C57.1489 41.43 57.1134 42.2925 55.9615 42.836C54.8095 43.3796 52.5411 43.604 47.2385 43.8421C41.9359 44.0802 33.5993 44.3318 28.1606 44.3762C22.7218 44.4204 20.181 44.2574 18.4215 43.8498C16.662 43.4421 15.6837 42.79 15.344 42.0427C15.0042 41.2953 15.3032 40.4529 15.7992 39.6921C16.295 38.9312 16.988 38.2519 17.5139 37.7903C18.0396 37.3288 18.3982 37.0851 19.0466 36.7445Z" fill="#7BB1DD"/>
<path fill-rule="evenodd" clip-rule="evenodd" d="M28.2082 36.0111C28.4393 36.7877 28.8091 37.8233 29.2622 38.7017C29.7152 39.58 30.2515 40.3011 30.9357 40.8051C31.6198 41.309 32.452 41.5956 33.8157 41.7296C35.1795 41.8637 37.0749 41.8452 38.6744 41.8777C40.274 41.91 41.5776 41.9932 42.4837 41.9978C43.3898 42.0024 43.8983 41.9284 44.0185 41.6048C44.1387 41.2812 43.8706 40.708 43.644 40.2457C43.4175 39.7834 43.2326 39.4321 42.9922 39.0946C42.7518 38.7571 42.4559 38.4335 41.9659 38.0775C41.4759 37.7216 40.7917 37.3333 40.2277 36.9542C39.6637 36.5751 39.22 36.2052 38.7207 35.8031C38.2214 35.4009 37.6666 34.9663 37.1212 34.5457C36.5756 34.125 36.0394 33.7181 35.6465 33.3529C35.2535 32.9877 35.0038 32.6641 34.8304 32.4044C34.657 32.1448 34.5598 31.9492 34.4625 31.7536C34.2749 31.8116 34.1141 31.7937 33.9443 31.7312C33.7746 31.6687 33.5959 31.5614 33.3145 31.2934C33.0331 31.0254 32.649 30.5966 32.3095 30.3777C32.1407 30.2689 31.983 30.212 31.8209 30.1943C31.2547 30.5214 30.6883 30.8485 30.114 31.2709C29.5395 31.6932 28.9571 32.2111 28.5688 32.715C28.1804 33.2189 27.9863 33.7089 27.9355 34.2128C27.8845 34.7167 27.977 35.2345 28.2082 36.0111Z" fill="#A8C9E8"/>
<path fill-rule="evenodd" clip-rule="evenodd" d="M38.9378 33.7645C39.2382 34.3008 39.7561 34.8462 40.3247 35.327C40.8933 35.8078 41.5127 36.2238 42.1183 36.6076C42.7239 36.9913 43.3156 37.3426 43.8288 37.7633C44.3419 38.184 44.7765 38.674 45.188 39.1317C45.5994 39.5893 45.9877 40.0146 46.5517 40.3383C47.1157 40.6618 47.8553 40.8838 48.6274 41.0178C49.3994 41.1519 50.2038 41.1982 51.5674 41.0804C52.9309 40.9627 54.8538 40.6809 56.7766 40.3992C56.5025 39.8609 56.0069 39.3785 55.1028 38.6477C54.0138 37.7676 52.332 36.5273 51.2142 35.7553C50.0964 34.9832 49.5425 34.6794 48.9395 34.4025C48.3365 34.1255 47.6844 33.8754 46.6212 33.2947C45.5581 32.714 44.0841 31.8028 42.9182 31.0702C41.7523 30.3376 40.8947 29.7837 40.2693 29.3996C39.6439 29.0154 39.2509 28.801 38.9694 28.7474C38.8477 28.7243 38.7469 28.7311 38.6597 28.7519C38.7725 29.3009 38.8851 29.8499 38.8536 30.4203C38.8221 30.9907 38.6465 31.5824 38.6003 32.1419C38.5541 32.7012 38.6373 33.2282 38.9378 33.7645Z" fill="#A8C9E8"/>
<path d="M55.7591 38.335H17.2402V45.8504H55.7591V38.335Z" fill="#0090CF"/>
<path d="M55.7591 45.8506H17.2402V53.3661H55.7591V45.8506Z" fill="#007031"/>
<path d="M55.7591 53.3662H17.2402V60.8817H55.7591V53.3662Z" fill="#E11F13"/>
</g>
<path fill-rule="evenodd" clip-rule="evenodd" d="M29.3641 46.8284C29.7409 50.2488 32.7539 53.1257 36.5033 53.122C40.2457 53.1183 43.2634 50.2695 43.6465 46.8287C44.146 42.3822 40.7205 38.7238 36.5033 38.7388C32.3157 38.7538 28.8069 42.387 29.3641 46.8284Z" fill="#FDFDFD"/>
<path fill-rule="evenodd" clip-rule="evenodd" d="M35.983 39.2614C32.4811 39.5342 29.5589 42.552 29.8236 46.4305C30.0687 50.0241 33.2322 52.9033 37.0728 52.6063C40.5317 52.3389 43.4843 49.2792 43.1781 45.3865C42.904 41.9024 39.8361 38.9612 35.983 39.2614Z" fill="#1B1C1C"/>
<path fill-rule="evenodd" clip-rule="evenodd" d="M32.632 46.4604C33.3597 46.425 34.1242 46.3444 34.8545 46.2825C35.4813 46.2294 35.3872 46.34 35.6472 45.881L36.5363 44.3857C36.7919 43.9561 36.7757 44.0163 36.5166 43.5974C36.1983 43.0829 35.8432 42.6298 35.5282 42.1432C35.2906 41.7761 35.1272 41.8399 34.6282 41.8568C34.2609 41.8692 33.899 41.9069 33.5409 41.9526C33.0068 42.0209 33.0405 42.0578 32.8008 42.4109C30.9318 45.1643 32.0579 44.9133 32.632 46.4604Z" fill="#FDFDFD"/>
<path fill-rule="evenodd" clip-rule="evenodd" d="M36.7651 50.6555C36.9803 50.9137 37.6994 51.4056 38.0736 51.6396C38.4406 51.8692 38.4756 51.8227 38.9054 51.6356C39.502 51.3759 40.6294 50.7905 40.8631 50.19C41.0646 49.672 41.3289 49.017 41.4053 48.4166C39.4657 47.4107 40.3154 46.8826 38.5178 47.78C38.2697 47.9038 37.9893 48.0278 37.7433 48.1483C37.3527 48.3396 37.4993 48.2202 37.3281 48.8633C37.1677 49.4657 36.8927 50.0848 36.7651 50.6555Z" fill="#CECFD7"/>
<path fill-rule="evenodd" clip-rule="evenodd" d="M33.6621 50.33C33.841 50.2143 35.6832 49.901 36.9324 48.5958L37.079 48.424C37.0872 48.4142 37.1002 48.3966 37.1122 48.3841C37.1824 48.1486 36.765 47.8491 36.4534 47.5249C35.3029 46.3278 35.7755 46.5252 34.2563 46.6431C33.7777 46.6802 33.2065 46.708 32.7399 46.7795C32.6149 47.0376 32.3818 48.0137 32.2978 48.3823C32.1876 48.8658 32.4448 48.9933 32.9863 49.6274C33.2013 49.8793 33.3618 50.1827 33.6621 50.33Z" fill="#FDFDFD"/>
<path fill-rule="evenodd" clip-rule="evenodd" d="M41.5581 48.1533C41.9002 47.9846 42.2512 47.481 42.4697 47.0821C42.943 46.2178 42.6188 44.1399 42.2202 43.746C42.0029 43.5313 41.3007 43.1043 40.9214 43.0039L40.1949 43.8413C39.3185 44.8723 39.4371 44.3896 39.6203 45.7202C39.831 47.2514 39.5299 46.7402 40.8874 47.6917C41.1046 47.844 41.3341 48.0323 41.5581 48.1533Z" fill="#CECFD7"/>
<path fill-rule="evenodd" clip-rule="evenodd" d="M38.9347 44.3354C39.2078 44.0871 38.9659 42.6502 38.8811 42.2575C38.807 41.9143 38.7179 41.6599 38.6066 41.3402C38.5086 41.0583 38.4284 40.7401 38.2073 40.5665C37.7348 40.3869 36.8202 40.2774 36.5042 40.6043C36.3193 40.7957 35.7552 41.5611 35.6741 41.7955C36.0582 42.322 36.4574 42.9227 36.8273 43.5163C37.1498 44.0338 37.0954 43.8991 37.7486 44.0671C38.1044 44.1587 38.5794 44.3436 38.9347 44.3354Z" fill="#FDFDFD"/>
<path fill-rule="evenodd" clip-rule="evenodd" d="M38.9347 44.3354C38.9906 44.3712 38.9022 44.3463 39.0636 44.4014C39.3281 44.4917 39.4891 44.206 39.8563 43.728L40.7011 42.7609C40.5065 42.2377 40.1445 41.7163 39.8791 41.2586C39.6839 40.9218 39.6184 40.9532 39.1822 40.8218C38.8462 40.7206 38.5637 40.6362 38.2073 40.5664C38.4284 40.74 38.5086 41.0583 38.6066 41.3401C38.7179 41.6598 38.807 41.9142 38.8811 42.2575C38.9659 42.6501 39.2078 44.087 38.9347 44.3354Z" fill="#CECFD7"/>
<path fill-rule="evenodd" clip-rule="evenodd" d="M30.366 45.1853C30.447 45.1515 31.2996 44.6109 31.3622 44.5494C31.4905 44.4231 31.7506 43.6007 31.8722 43.3549C32.1587 42.7759 32.8271 41.9491 32.8521 41.7861C32.8697 41.6722 32.82 41.164 32.8183 40.9805C31.6293 41.7525 30.3971 43.7151 30.366 45.1853Z" fill="#FDFDFD"/>
<path fill-rule="evenodd" clip-rule="evenodd" d="M33.6621 50.3302C33.7577 50.5133 33.837 50.5022 34.0591 50.7142C34.2767 50.9221 34.2991 50.9213 34.684 50.8993C35.163 50.8718 35.7111 50.8177 36.1595 50.7054C36.5697 50.6027 36.4522 50.5272 36.7404 49.7032C36.8776 49.311 37.0273 48.8124 37.1122 48.3843C37.1002 48.3967 37.0873 48.4144 37.0791 48.4242L36.9325 48.596C35.6832 49.9012 33.8411 50.2145 33.6621 50.3302Z" fill="#CECFD7"/>
<path fill-rule="evenodd" clip-rule="evenodd" d="M34.2083 51.657C34.1711 51.4737 34.1487 51.2241 34.0231 51.0918C33.859 50.9188 33.5479 50.7106 32.9525 50.0577L32.3707 49.3918C32.2716 49.2704 32.0862 48.9744 32.0091 48.9022C31.9495 48.8463 30.9373 48.4215 30.8262 48.3862C31.0915 49.1086 31.4153 49.4294 31.7749 49.9309C32.1643 50.4739 33.4199 51.4104 34.2083 51.657Z" fill="#EEEEF1"/>
<path d="M33.3336 54.747V57.4272H32.5754V55.3328H32.0776V54.747H33.3336ZM34.7158 54.6934C35.1012 54.6934 35.405 54.8069 35.6271 55.0341C35.8491 55.2613 35.9602 55.588 35.9602 56.0144C35.9602 56.3207 35.9008 56.5842 35.7821 56.805C35.6634 57.0258 35.4962 57.1937 35.2805 57.3085C35.0648 57.4234 34.8153 57.4808 34.532 57.4808C34.3814 57.4808 34.2371 57.4636 34.0993 57.4291C33.9615 57.3947 33.844 57.3468 33.747 57.2856L34.0227 56.7418C34.1529 56.8337 34.3176 56.8797 34.5167 56.8797C34.7081 56.8797 34.8632 56.8267 34.9819 56.7208C35.1006 56.6148 35.1701 56.4611 35.1906 56.2594C35.0374 56.3896 34.837 56.4547 34.5894 56.4547C34.421 56.4547 34.2665 56.4196 34.1261 56.3494C33.9857 56.2792 33.874 56.1796 33.7911 56.0507C33.7081 55.9218 33.6666 55.7744 33.6666 55.6085C33.6666 55.4272 33.7132 55.2671 33.8064 55.1279C33.8996 54.9888 34.0259 54.8816 34.1855 54.8063C34.345 54.731 34.5218 54.6934 34.7158 54.6934ZM34.7694 55.911C34.8791 55.911 34.9685 55.8797 35.0374 55.8172C35.1063 55.7546 35.1408 55.6723 35.1408 55.5702C35.1408 55.4706 35.1069 55.3896 35.0393 55.327C34.9717 55.2645 34.8804 55.2332 34.7655 55.2332C34.6583 55.2332 34.5709 55.2639 34.5033 55.3251C34.4356 55.3864 34.4018 55.4694 34.4018 55.574C34.4018 55.6761 34.4356 55.7578 34.5033 55.8191C34.5709 55.8803 34.6596 55.911 34.7694 55.911Z" fill="#FEFEFE"/>
<path d="M38.2193 56.0144C38.3418 56.0858 38.4363 56.1739 38.5026 56.2785C38.569 56.3832 38.6022 56.5032 38.6022 56.6385C38.6022 56.8069 38.5537 56.955 38.4567 57.0826C38.3597 57.2103 38.2231 57.3085 38.047 57.3775C37.8709 57.4464 37.6679 57.4808 37.4382 57.4808C37.2084 57.4808 37.0055 57.4464 36.8294 57.3775C36.6533 57.3085 36.5167 57.2103 36.4197 57.0826C36.3227 56.955 36.2742 56.8069 36.2742 56.6385C36.2742 56.5032 36.3074 56.3832 36.3737 56.2785C36.4401 56.1739 36.5346 56.0858 36.6571 56.0144C36.5652 55.9505 36.4943 55.8727 36.4446 55.7808C36.3948 55.6889 36.3699 55.5868 36.3699 55.4745C36.3699 55.3187 36.4146 55.1815 36.5039 55.0629C36.5933 54.9442 36.719 54.8529 36.8811 54.7891C37.0432 54.7253 37.2289 54.6934 37.4382 54.6934C37.6475 54.6934 37.8332 54.7253 37.9953 54.7891C38.1574 54.8529 38.2831 54.9442 38.3724 55.0629C38.4618 55.1815 38.5065 55.3187 38.5065 55.4745C38.5065 55.5868 38.4816 55.6889 38.4318 55.7808C38.382 55.8727 38.3112 55.9505 38.2193 56.0144ZM37.4382 55.2256C37.3437 55.2256 37.2672 55.2505 37.2084 55.3002C37.1497 55.35 37.1204 55.4196 37.1204 55.5089C37.1204 55.5957 37.1491 55.664 37.2065 55.7138C37.264 55.7635 37.3412 55.7884 37.4382 55.7884C37.5352 55.7884 37.613 55.7635 37.6717 55.7138C37.7305 55.664 37.7598 55.5957 37.7598 55.5089C37.7598 55.4196 37.7305 55.35 37.6717 55.3002C37.613 55.2505 37.5352 55.2256 37.4382 55.2256ZM37.4382 56.9486C37.5607 56.9486 37.6584 56.9186 37.7311 56.8586C37.8039 56.7987 37.8402 56.7176 37.8402 56.6155C37.8402 56.5134 37.8039 56.4323 37.7311 56.3723C37.6584 56.3124 37.5607 56.2824 37.4382 56.2824C37.3157 56.2824 37.218 56.3124 37.1453 56.3723C37.0725 56.4323 37.0361 56.5134 37.0361 56.6155C37.0361 56.7176 37.0725 56.7987 37.1453 56.8586C37.218 56.9186 37.3157 56.9486 37.4382 56.9486ZM40.9225 56.8261V57.4272H38.8357V56.9524L39.8389 56.0144C39.9359 55.9225 40.001 55.844 40.0342 55.7789C40.0674 55.7138 40.084 55.648 40.084 55.5817C40.084 55.4949 40.0546 55.4272 39.9959 55.3787C39.9372 55.3302 39.8517 55.306 39.7394 55.306C39.6398 55.306 39.5486 55.3283 39.4656 55.373C39.3827 55.4177 39.3144 55.4821 39.2608 55.5664L38.6979 55.2524C38.8026 55.0788 38.9494 54.9422 39.1382 54.8427C39.3271 54.7431 39.5505 54.6934 39.8083 54.6934C40.0125 54.6934 40.1931 54.7266 40.3501 54.7929C40.5071 54.8593 40.6296 54.9544 40.7177 55.0782C40.8058 55.202 40.8498 55.3455 40.8498 55.5089C40.8498 55.6544 40.8185 55.7916 40.756 55.9205C40.6934 56.0494 40.5728 56.1956 40.3941 56.359L39.8887 56.8261H40.9225Z" fill="#FEFEFE"/>
<path fill-rule="evenodd" clip-rule="evenodd" d="M36.5001 0.5C56.6585 0.5 73.0002 16.8416 73.0002 37.0001C73.0002 57.1585 56.6585 73.5002 36.5001 73.5002C16.3416 73.5002 0 57.1585 0 37.0001C0 16.8416 16.3416 0.5 36.5001 0.5ZM36.5001 2.62788C55.4833 2.62788 70.8723 18.0168 70.8723 37.0001C70.8723 55.9833 55.4833 71.3723 36.5001 71.3723C17.5168 71.3723 2.12788 55.9833 2.12788 37.0001C2.12788 18.0168 17.5168 2.62788 36.5001 2.62788Z" fill="#7BB1DD"/>
<path d="M24.1608 61.5005L22.2222 64.7947L21.6151 64.4375L22.3462 63.195C21.9673 63.1283 21.6382 63.0128 21.359 62.8485C20.9386 62.6011 20.6742 62.3093 20.5658 61.9731C20.4574 61.6369 20.5149 61.2789 20.7383 60.8993L21.3559 59.8499L21.963 60.2071L21.3842 61.1907C21.2476 61.4229 21.2107 61.6398 21.2736 61.8416C21.3365 62.0433 21.4935 62.2181 21.7445 62.3658C22.03 62.5338 22.3339 62.6345 22.6564 62.668L23.5537 61.1432L24.1608 61.5005ZM26.8506 66.0216L26.6442 66.5799L23.9553 65.5859L25.2807 62.0007L27.8979 62.9682L27.6915 63.5264L25.7401 62.8051L25.3955 63.7372L27.1267 64.3772L26.9241 64.9252L25.1929 64.2853L24.8275 65.2737L26.8506 66.0216ZM30.5732 63.6801C30.8963 63.7535 31.1655 63.8706 31.3809 64.0315C31.5964 64.1924 31.7455 64.3868 31.8281 64.6146C31.9108 64.8424 31.921 65.093 31.859 65.3663C31.7977 65.6361 31.6804 65.8568 31.5071 66.0284C31.3338 66.2 31.1152 66.3118 30.8514 66.3638C30.5876 66.4159 30.2942 66.4053 29.9711 66.332L29.1298 66.1409L28.8855 67.2166L28.1933 67.0594L29.0397 63.3319L30.5732 63.6801ZM30.0721 65.739C30.3739 65.8075 30.6174 65.7956 30.8026 65.7032C30.9878 65.6109 31.1074 65.4458 31.1614 65.2079C31.2154 64.9701 31.1789 64.7696 31.0517 64.6063C30.9245 64.443 30.71 64.3271 30.4083 64.2586L29.5989 64.0749L29.2627 65.5552L30.0721 65.739ZM34.3739 66.4843L33.6678 66.4112L33.502 68.0135L32.8068 67.9416L33.2001 64.1396L33.8953 64.2115L33.7307 65.8029L34.4585 65.8782L35.7149 64.3997L36.4644 64.4773L34.9758 66.1843L36.12 68.2844L35.3216 68.2018L34.3739 66.4843ZM40.2394 67.3627L40.2995 67.9549L37.4473 68.2442L37.0616 64.4414L39.8377 64.1598L39.8977 64.752L37.8279 64.9619L37.9282 65.9506L39.7645 65.7643L39.8234 66.3457L37.9872 66.5319L38.0935 67.5804L40.2394 67.3627ZM43.6196 67.4172C43.2438 67.5045 42.8851 67.5009 42.5436 67.4064C42.2021 67.3119 41.9116 67.1393 41.6722 66.8884C41.4327 66.6376 41.2705 66.3295 41.1857 65.9643C41.1009 65.5991 41.1116 65.2509 41.2178 64.9198C41.3241 64.5887 41.5096 64.3055 41.7745 64.0702C42.0394 63.8349 42.3598 63.6736 42.7357 63.5863C43.0406 63.5155 43.3313 63.5041 43.6078 63.552C43.8843 63.5999 44.1329 63.7047 44.3536 63.8665L44.0043 64.3904C43.6673 64.1623 43.302 64.0939 42.9084 64.1853C42.6531 64.2446 42.4373 64.3535 42.2612 64.5121C42.085 64.6708 41.9632 64.8626 41.8958 65.0875C41.8285 65.3124 41.824 65.5507 41.8825 65.8025C41.9409 66.0543 42.05 66.2663 42.2095 66.4385C42.3691 66.6107 42.5629 66.7292 42.791 66.794C43.019 66.8587 43.2608 66.8615 43.5161 66.8022C43.9097 66.7108 44.207 66.4867 44.4082 66.1298L44.9538 66.4515C44.827 66.694 44.6492 66.8978 44.4203 67.0631C44.1915 67.2283 43.9246 67.3464 43.6196 67.4172ZM48.0835 65.9939C47.724 66.1342 47.3686 66.182 47.0171 66.1374C46.6656 66.0929 46.3533 65.9636 46.0804 65.7498C45.8074 65.5358 45.6027 65.2542 45.4665 64.9049C45.3302 64.5556 45.2909 64.2095 45.3485 63.8665C45.4062 63.5236 45.5492 63.2168 45.7776 62.9459C46.0061 62.6751 46.3 62.4695 46.6595 62.3293C46.9512 62.2155 47.2372 62.1625 47.5177 62.1703C47.7982 62.1781 48.0592 62.2462 48.3008 62.3746L48.0303 62.9432C47.6641 62.7657 47.2928 62.7504 46.9163 62.8973C46.6721 62.9926 46.4742 63.1313 46.3226 63.3136C46.171 63.4958 46.078 63.7031 46.0435 63.9353C46.0091 64.1676 46.0389 64.4041 46.1328 64.6449C46.2268 64.8857 46.3651 65.0799 46.5477 65.2274C46.7303 65.375 46.9391 65.4645 47.1741 65.4959C47.4091 65.5273 47.6487 65.4953 47.8929 65.4001C48.2693 65.2532 48.5315 64.9887 48.6794 64.6067L49.2655 64.8469C49.1747 65.1051 49.028 65.3323 48.8252 65.5287C48.6224 65.725 48.3752 65.8801 48.0835 65.9939ZM51.2115 62.5664L50.5944 62.9172L51.3905 64.3176L50.7829 64.663L48.8939 61.3401L49.5015 60.9947L50.2922 62.3856L50.9283 62.0239L51.0918 60.0906L51.7469 59.7183L51.5271 61.9725L53.6786 63.0169L52.9808 63.4136L51.2115 62.5664Z" fill="#FEFEFE"/>
<path d="M11.1053 50.7049L11.4514 51.3246L12.8578 50.5392L13.1986 51.1494L9.86142 53.0132L9.52061 52.403L10.9174 51.6229L10.5607 50.984L8.62866 50.8059L8.26125 50.148L10.5137 50.3848L11.5744 48.2413L11.9658 48.9421L11.1053 50.7049ZM9.72753 45.72L10.295 47.545L11.2516 47.6421L11.4688 48.3408L7.30816 47.8332L7.10063 47.1658L10.2383 44.3832L10.4588 45.0923L9.72753 45.72ZM9.2654 46.1096L7.88384 47.294L9.69181 47.4809L9.2654 46.1096ZM6.00815 43.1461C5.93366 42.8233 5.92198 42.53 5.97314 42.266C6.02427 42.002 6.13441 41.7832 6.30359 41.6097C6.47273 41.4361 6.69389 41.3179 6.967 41.2548C7.23658 41.1926 7.48632 41.2022 7.71618 41.2836C7.94608 41.365 8.14185 41.5132 8.30354 41.7281C8.46523 41.9429 8.58332 42.2117 8.65781 42.5345L8.85184 43.3752L9.92664 43.1271L10.0863 43.8188L6.36185 44.6785L6.00815 43.1461ZM8.07993 42.7015C8.01034 42.4 7.89367 42.186 7.72996 42.0594C7.56625 41.9328 7.36557 41.8969 7.1279 41.9518C6.89023 42.0066 6.72556 42.1268 6.63392 42.3124C6.54225 42.4979 6.53117 42.7415 6.6008 43.043L6.78745 43.8517L8.26661 43.5103L8.07993 42.7015ZM8.33038 37.7433L8.47481 39.6489L9.38537 39.9578L9.44065 40.6874L5.49926 39.2612L5.44643 38.5642L9.12743 36.5548L9.18356 37.2953L8.33038 37.7433ZM7.79277 38.0195L6.18106 38.8645L7.9013 39.4515L7.79277 38.0195ZM5.6351 32.9747L9.44651 33.2635L9.39329 33.966L7.95584 33.857C8.06289 34.2266 8.10418 34.5728 8.07972 34.8959C8.04283 35.3823 7.8974 35.7482 7.64329 35.9937C7.38922 36.2391 7.04258 36.3452 6.60335 36.3119L5.38916 36.2199L5.44238 35.5175L6.58035 35.6037C6.84898 35.6241 7.05998 35.5616 7.21336 35.4162C7.36678 35.2708 7.45448 35.053 7.47649 34.7626C7.50152 34.4323 7.45803 34.115 7.34601 33.8108L5.58188 33.6771L5.6351 32.9747ZM9.32476 29.5381L8.90346 31.4022L9.68322 31.9647L9.52192 32.6784L6.17282 30.158L6.32691 29.4763L10.4356 28.6359L10.2719 29.3602L9.32476 29.5381ZM8.72974 29.6443L6.94104 29.979L8.41318 31.0451L8.72974 29.6443ZM11.1822 25.2162L11.7386 25.4275L10.7212 28.1076L7.14768 26.751L8.13802 24.1423L8.69445 24.3536L7.95605 26.2986L8.88514 26.6513L9.54021 24.9258L10.0865 25.1332L9.43142 26.8587L10.4166 27.2327L11.1822 25.2162ZM11.6558 21.5651C11.8334 21.3855 12.0225 21.2795 12.2232 21.2471C12.4238 21.2147 12.627 21.2569 12.8326 21.374C13.1237 21.5396 13.2887 21.7759 13.3277 22.0829C13.3666 22.3898 13.2699 22.7474 13.0377 23.1556L12.1411 24.7312L8.81893 22.8408L9.66423 21.3553C9.87665 20.982 10.1166 20.7332 10.3842 20.609C10.6517 20.4848 10.9215 20.5001 11.1936 20.655C11.3676 20.754 11.494 20.8814 11.5729 21.0373C11.6518 21.1931 11.6794 21.3691 11.6558 21.5651ZM10.5837 23.0408L11.0535 22.215C11.167 22.0157 11.2138 21.8413 11.1942 21.6919C11.1745 21.5425 11.0871 21.4236 10.9321 21.3354C10.777 21.2472 10.6295 21.2324 10.4894 21.2909C10.3493 21.3494 10.2225 21.4782 10.1091 21.6776L9.63919 22.5034L10.5837 23.0408ZM12.5523 22.9045C12.8007 22.4679 12.7604 22.1559 12.4314 21.9687C12.1087 21.785 11.8231 21.9115 11.5746 22.3482L11.0345 23.2973L12.0122 23.8537L12.5523 22.9045ZM15.3569 19.876C15.117 20.1828 14.8339 20.4074 14.5077 20.5498C14.1815 20.6921 13.8452 20.741 13.4987 20.6965C13.1523 20.652 12.8328 20.5154 12.5403 20.2867C12.2478 20.0579 12.0382 19.7808 11.9115 19.4553C11.7848 19.1297 11.7512 18.7916 11.8107 18.4407C11.8702 18.0898 12.02 17.7609 12.2599 17.4541C12.4999 17.1472 12.7829 16.9227 13.1091 16.7803C13.4353 16.638 13.771 16.5885 14.116 16.6319C14.461 16.6753 14.7812 16.8124 15.0765 17.0434C15.3719 17.2744 15.5822 17.5521 15.7075 17.8765C15.8328 18.2009 15.8656 18.5385 15.8061 18.8894C15.7466 19.2403 15.5969 19.5692 15.3569 19.876ZM14.8666 19.4925C15.0235 19.2918 15.1197 19.0758 15.1549 18.8446C15.1902 18.6134 15.1626 18.3885 15.0724 18.17C14.9821 17.9516 14.8367 17.7639 14.6359 17.6069C14.4352 17.4499 14.2179 17.354 13.9841 17.319C13.7503 17.2841 13.5255 17.3116 13.3096 17.4015C13.0937 17.4915 12.9073 17.6368 12.7503 17.8375C12.5933 18.0383 12.4972 18.2543 12.4619 18.4855C12.4267 18.7167 12.4542 18.9415 12.5444 19.16C12.6347 19.3785 12.7802 19.5662 12.9809 19.7232C13.1817 19.8802 13.3989 19.9761 13.6327 20.011C13.8665 20.046 14.0913 20.0185 14.3073 19.9285C14.5231 19.8386 14.7096 19.6932 14.8666 19.4925ZM15.8175 16.584L16.8951 15.5382L17.2906 15.9457L16.213 16.9915L15.8175 16.584ZM18.6637 11.4984L21.0183 14.5094L20.4634 14.9433L19.5754 13.8078C19.3744 14.1359 19.1464 14.3997 18.8912 14.5993C18.5069 14.8998 18.1385 15.0389 17.786 15.0165C17.4334 14.9941 17.1215 14.8094 16.8501 14.4625L16.1 13.5033L16.6549 13.0693L17.3579 13.9683C17.5239 14.1805 17.7122 14.2943 17.923 14.3097C18.1338 14.3251 18.3539 14.2431 18.5833 14.0637C18.8442 13.8597 19.0493 13.6137 19.1987 13.326L18.1088 11.9323L18.6637 11.4984ZM24.1398 12.0179L24.43 12.5375L21.9272 13.9354L20.0634 10.5982L22.4995 9.23767L22.7897 9.75732L20.9733 10.7718L21.4579 11.6394L23.0693 10.7394L23.3542 11.2496L21.7428 12.1495L22.2567 13.0696L24.1398 12.0179ZM25.1415 8.04868C25.448 7.92278 25.7356 7.86367 26.0043 7.87134C26.2731 7.87901 26.5069 7.95218 26.7056 8.09097C26.9042 8.22976 27.0568 8.42876 27.1633 8.68806C27.2684 8.94397 27.2995 9.19194 27.2564 9.43199C27.2133 9.67204 27.0989 9.88926 26.9131 10.0836C26.7273 10.278 26.4812 10.4382 26.1748 10.564L25.3767 10.8918L25.7958 11.9121L25.1392 12.1819L23.6868 8.6462L25.1415 8.04868ZM25.9162 10.0209C26.2025 9.90332 26.3947 9.75349 26.4931 9.57138C26.5915 9.38931 26.5943 9.18548 26.5016 8.95985C26.409 8.73425 26.2637 8.59123 26.0657 8.53091C25.8677 8.47052 25.6257 8.49913 25.3394 8.61669L24.5717 8.93208L25.1485 10.3363L25.9162 10.0209ZM29.7699 8.91919L29.0782 9.07886L29.4405 10.6485L28.7595 10.8056L27.8998 7.08121L28.5808 6.92403L28.9407 8.48294L29.6537 8.31838L30.3633 6.5126L31.0975 6.34314L30.2422 8.44034L32.0051 10.0565L31.2229 10.237L29.7699 8.91919ZM35.303 9.15729L35.348 9.75079L32.4894 9.96744L32.2005 6.15603L34.9829 5.94513L35.0278 6.53863L32.9533 6.69588L33.0284 7.68682L34.8688 7.54732L34.913 8.12995L33.0726 8.26945L33.1522 9.32029L35.303 9.15729ZM37.8815 9.82446C37.4956 9.81981 37.1481 9.73094 36.8389 9.55792C36.5298 9.38491 36.2887 9.14806 36.1158 8.84747C35.9428 8.54682 35.8587 8.20906 35.8632 7.83413C35.8678 7.4592 35.961 7.12357 36.143 6.82725C36.3249 6.53092 36.5726 6.3 36.8858 6.13451C37.1991 5.96902 37.5487 5.88861 37.9345 5.89326C38.2476 5.89706 38.5326 5.95511 38.7898 6.06744C39.0469 6.17978 39.2634 6.34076 39.4393 6.55042L38.9754 6.97619C38.7023 6.67436 38.3638 6.52102 37.9597 6.51612C37.6977 6.51296 37.4622 6.56742 37.2533 6.67958C37.0444 6.79174 36.8805 6.94903 36.7616 7.15144C36.6426 7.35389 36.5816 7.58435 36.5785 7.84276C36.5753 8.10123 36.6307 8.33308 36.7448 8.5383C36.8588 8.74359 37.0189 8.90481 37.225 9.02198C37.431 9.13915 37.6651 9.19929 37.9272 9.20249C38.3313 9.20735 38.6734 9.06043 38.9538 8.76166L39.4071 9.20401C39.2263 9.40934 39.005 9.56503 38.7434 9.67108C38.4818 9.77713 38.1945 9.82826 37.8815 9.82446ZM41.697 10.293C41.3162 10.2304 40.986 10.0903 40.7063 9.87275C40.4267 9.65524 40.2239 9.38487 40.0982 9.06167C39.9724 8.73847 39.9399 8.39187 40.0008 8.02188C40.0616 7.65192 40.2042 7.33411 40.4287 7.0685C40.6531 6.80293 40.9327 6.61184 41.2672 6.49528C41.6019 6.37879 41.9595 6.3518 42.3402 6.41443C42.6492 6.4652 42.9223 6.56547 43.1596 6.71516C43.3969 6.86488 43.5868 7.05657 43.7291 7.29023L43.2065 7.64148C42.982 7.30202 42.6703 7.09957 42.2716 7.03399C42.013 6.99146 41.772 7.00992 41.5486 7.08942C41.3253 7.16891 41.1395 7.29978 40.9915 7.48199C40.8435 7.66427 40.7485 7.88295 40.7066 8.13794C40.6647 8.39301 40.6846 8.63057 40.7665 8.8506C40.8484 9.07066 40.9824 9.25411 41.1685 9.40092C41.3547 9.54773 41.5771 9.64243 41.8357 9.68493C42.2344 9.7505 42.5948 9.65666 42.9168 9.40341L43.2986 9.90889C43.0889 10.0847 42.8467 10.2054 42.5722 10.2709C42.2976 10.3364 42.0059 10.3438 41.697 10.293ZM45.7308 9.63344L45.065 9.38729L44.5064 10.8982L43.8508 10.6558L45.1763 7.07063L45.8319 7.31302L45.2771 8.81367L45.9634 9.06742L47.5477 7.94739L48.2545 8.20871L46.3884 9.49238L46.975 11.8109L46.2222 11.5326L45.7308 9.63344ZM50.0349 12.338L48.3442 11.4468L47.5984 12.0537L46.9511 11.7125L50.2551 9.13314L50.8734 9.45908L50.6175 13.645L49.9605 13.2987L50.0349 12.338ZM50.0869 11.7358L50.2284 9.92153L48.8164 11.0661L50.0869 11.7358ZM55.5527 12.4074L53.3475 15.5295L52.7766 15.1263L53.3909 14.2566L52.6193 13.7115L52.5568 13.6674L51.3627 14.1276L50.7517 13.696L52.1012 13.2052C51.9408 12.9716 51.8634 12.7263 51.8687 12.4695C51.8742 12.2125 51.964 11.9607 52.1384 11.7139C52.3064 11.476 52.5048 11.3087 52.7337 11.2118C52.9625 11.115 53.2071 11.0905 53.4674 11.1385C53.7277 11.1864 53.9902 11.3038 54.2548 11.4907L55.5527 12.4074ZM53.9261 11.9939C53.6882 11.8259 53.4673 11.7523 53.2632 11.773C53.0591 11.7938 52.8825 11.9097 52.7334 12.1208C52.5885 12.326 52.5376 12.5274 52.5808 12.725C52.6239 12.9226 52.7614 13.1033 52.9934 13.2671L53.7248 13.7838L54.6353 12.4948L53.9261 11.9939ZM59.1315 15.6991C59.3622 15.9369 59.5239 16.1819 59.6167 16.4343C59.7094 16.6867 59.7283 16.9309 59.6733 17.1669C59.6182 17.403 59.4902 17.6186 59.289 17.8138C59.0905 18.0064 58.8718 18.1274 58.6329 18.1766C58.394 18.2258 58.1499 18.2003 57.9003 18.1C57.6509 17.9997 57.4108 17.8307 57.18 17.593L56.5792 16.9738L55.7876 17.742L55.2933 17.2326L58.0362 14.5706L59.1315 15.6991ZM57.5882 17.1511C57.8037 17.3732 58.0143 17.4961 58.2199 17.5197C58.4255 17.5434 58.6158 17.4703 58.7908 17.3005C58.9659 17.1306 59.0446 16.9426 59.0271 16.7363C59.0096 16.5302 58.8931 16.316 58.6776 16.0939L58.0996 15.4983L57.0102 16.5555L57.5882 17.1511ZM60.0436 22.0934L59.5551 22.4333L57.9176 20.0803L61.055 17.8969L62.6488 20.1872L62.1603 20.5272L60.9719 18.8195L60.1562 19.3872L61.2105 20.9021L60.7309 21.2359L59.6766 19.721L58.8116 20.323L60.0436 22.0934ZM60.7441 24.6713C60.5608 24.3317 60.4697 23.9848 60.4708 23.6305C60.4719 23.2762 60.5619 22.9505 60.7407 22.6533C60.9195 22.3561 61.1739 22.1185 61.5038 21.9404C61.8337 21.7623 62.1724 21.6808 62.5199 21.696C62.8673 21.7112 63.1894 21.8155 63.4862 22.0089C63.783 22.2024 64.023 22.469 64.2063 22.8085C64.3551 23.084 64.4428 23.3614 64.4694 23.6407C64.4961 23.9201 64.4605 24.1875 64.3627 24.443L63.7652 24.2443C63.8964 23.859 63.8661 23.4886 63.6741 23.1331C63.5496 22.9024 63.3877 22.723 63.1882 22.5949C62.9887 22.4668 62.7716 22.3999 62.5369 22.3942C62.3021 22.3885 62.071 22.4471 61.8436 22.5698C61.6162 22.6927 61.4404 22.8537 61.3164 23.053C61.1923 23.2524 61.1291 23.4706 61.1268 23.7077C61.1244 23.9447 61.1855 24.1786 61.3101 24.4092C61.502 24.7648 61.7966 24.9926 62.1939 25.0925L62.0274 25.7036C61.7601 25.6452 61.5165 25.5274 61.2968 25.3503C61.077 25.1731 60.8928 24.9468 60.7441 24.6713ZM66.465 28.6808L62.815 29.8157L62.6075 29.1483L65.6839 28.1917L65.0953 26.2989L62.0189 27.2555L61.8114 26.5881L65.4613 25.4531L66.465 28.6808ZM67.4107 33.4722L64.0971 32.3348C63.8041 32.2354 63.5738 32.0971 63.4063 31.9199C63.2388 31.7427 63.1359 31.5374 63.0975 31.3039C63.0668 31.1171 63.0759 30.9256 63.1248 30.7294L63.7028 30.8115C63.6803 30.9664 63.677 31.0924 63.6929 31.1894C63.7301 31.4157 63.8776 31.5833 64.1353 31.6922L64.2367 31.7364L66.8021 29.7706L66.9252 30.5196L64.8941 31.999L67.2973 32.7826L67.4107 33.4722ZM67.5403 34.5435L67.5756 37.5193L66.9914 37.5262L66.9644 35.2493L66.0252 35.2604L66.0386 36.3907C66.0441 36.8493 65.9527 37.199 65.7644 37.4397C65.5761 37.6804 65.3018 37.8029 64.9415 37.8071C64.5629 37.8116 64.2692 37.6841 64.0604 37.4244C63.8516 37.1648 63.7444 36.7929 63.7387 36.3088L63.7182 34.5888L67.5403 34.5435ZM64.2842 36.2641C64.2875 36.5371 64.3427 36.7439 64.4499 36.8847C64.5572 37.0253 64.7109 37.0945 64.9111 37.0921C65.3042 37.0875 65.4975 36.8067 65.4909 36.2498L65.4792 35.2669L64.2725 35.2812L64.2842 36.2641ZM67.141 42.2722L63.3557 41.7409L63.4529 41.0487L66.6433 41.4966L66.8528 40.0041L65.9111 39.8388C65.3836 39.7464 64.9598 39.6428 64.6396 39.528C64.3193 39.4132 64.0843 39.2681 63.9343 39.0927C63.7843 38.9172 63.728 38.6961 63.7655 38.4293C63.7786 38.3356 63.8146 38.2102 63.8734 38.053L64.4776 38.1874C64.4566 38.2323 64.4418 38.2853 64.4332 38.3466C64.4024 38.5665 64.5112 38.7408 64.7596 38.8694C65.0081 38.998 65.412 39.1126 65.9713 39.2132L67.5319 39.4874L67.141 42.2722ZM66.8829 43.8928L66.6866 44.5636L64.082 43.8013L66.1099 46.5341L65.9243 47.1682L62.2558 46.0945L62.4522 45.4237L65.0515 46.1845L63.0289 43.4532L63.2145 42.8191L66.8829 43.8928ZM62.7343 49.0637L63.0379 48.4221L61.5817 47.7333L61.8805 47.1014L65.3358 48.7359L65.037 49.3677L63.5907 48.6836L63.2778 49.345L64.2548 51.0213L63.9325 51.7025L62.8172 49.7312L60.4563 50.1125L60.7995 49.3869L62.7343 49.0637ZM59.6218 53.0818L60.6364 51.4622L60.0868 50.6733L60.4753 50.0532L62.8013 53.5401L62.4302 54.1325L58.2749 53.5654L58.6692 52.9361L59.6218 53.0818ZM60.2184 53.1785L62.0171 53.4548L60.9809 51.9615L60.2184 53.1785Z" fill="#FEFEFE"/>
<path fill-rule="evenodd" clip-rule="evenodd" d="M56.7572 55.8468C55.5967 55.9372 54.6283 56.9374 54.716 58.2227C54.7972 59.4136 55.8456 60.3678 57.1184 60.2694C58.2646 60.1807 59.2431 59.1668 59.1417 57.8767C59.0508 56.7221 58.0341 55.7474 56.7572 55.8468Z" fill="#FDFDFD"/>
<path fill-rule="evenodd" clip-rule="evenodd" d="M55.2407 58.1898C55.4819 58.178 55.7353 58.1513 55.9773 58.1308C56.185 58.1132 56.1538 58.1499 56.24 57.9978L56.5346 57.5022C56.6193 57.3599 56.614 57.3798 56.5281 57.241C56.4226 57.0705 56.3049 56.9203 56.2005 56.7591C56.1218 56.6374 56.0676 56.6585 55.9023 56.6642C55.7806 56.6683 55.6606 56.6807 55.5419 56.6959C55.365 56.7185 55.3761 56.7307 55.2967 56.8478C54.6773 57.7602 55.0505 57.6771 55.2407 58.1898Z" fill="#002E60"/>
<path fill-rule="evenodd" clip-rule="evenodd" d="M56.6167 59.612C56.688 59.6976 56.9263 59.8606 57.0504 59.9382C57.3016 60.0954 58.0704 59.6845 58.2479 59.4579C58.3168 59.3698 58.3044 59.2201 58.3074 59.1272C58.3105 59.0295 58.3184 58.9333 58.2393 58.8893C57.8719 58.6847 57.7432 58.6213 57.6535 58.563C57.5347 58.4859 57.5107 58.5233 57.1976 58.6591C57.1153 58.7001 57.0795 58.7138 56.9979 58.7537C56.8685 58.8171 56.86 58.805 56.8032 59.0181C56.7501 59.2178 56.6589 59.423 56.6167 59.612Z" fill="#002E60"/>
<path fill-rule="evenodd" clip-rule="evenodd" d="M58.0684 56.8752C58.0383 56.7456 57.9676 56.5743 57.9192 56.4614C57.8028 56.1889 56.9371 56.0869 56.662 56.1716C56.555 56.2045 56.4797 56.3344 56.4242 56.409C56.3659 56.4874 56.3044 56.5618 56.3442 56.6431C56.529 57.021 56.5984 57.1465 56.6388 57.2456C56.6922 57.3768 56.7332 57.3597 57.0678 57.4272C57.1588 57.4405 57.196 57.4497 57.2858 57.4635C57.4282 57.4854 57.4282 57.5002 57.5966 57.3577C57.7362 57.2394 57.9028 57.1345 58.0381 57.0211C58.0944 56.974 58.0852 56.9478 58.0684 56.8752Z" fill="#002E60"/>
<path fill-rule="evenodd" clip-rule="evenodd" d="M55.5884 59.5041C55.6477 59.4657 56.1563 59.5514 56.5703 59.1189L56.7208 58.8724C56.7235 58.8692 56.7277 58.8633 56.7317 58.8592C56.755 58.7812 56.6167 58.6819 56.5134 58.5744C56.1322 58.1777 56.2888 58.2432 55.7853 58.2822C55.6267 58.2945 55.4374 58.3037 55.2827 58.3274C55.2413 58.4129 55.1641 58.7365 55.1362 58.8586C55.0997 59.0188 55.185 59.0611 55.3644 59.2712C55.4357 59.3547 55.4888 59.4552 55.5884 59.5041Z" fill="#002E60"/>
<path fill-rule="evenodd" clip-rule="evenodd" d="M55.5886 59.5042C55.6203 59.5649 55.6466 59.5613 55.7202 59.6315C55.7923 59.7004 55.7997 59.7001 55.9273 59.6929C56.086 59.6838 56.2677 59.6658 56.4162 59.6286C56.5522 59.5946 56.5132 59.5695 56.6088 59.2965C56.6542 59.1665 56.7039 59.0013 56.732 58.8594C56.728 58.8635 56.7237 58.8693 56.721 58.8726L56.6724 58.9295C56.2584 59.3621 55.6479 59.4659 55.5886 59.5042Z" fill="#002E60"/>
<path fill-rule="evenodd" clip-rule="evenodd" d="M58.4274 58.8644C58.2104 58.7586 57.988 58.6343 57.7737 58.5201C57.5896 58.4221 57.6038 58.4681 57.5846 58.2944L57.5089 57.7228C57.4871 57.5587 57.4842 57.5791 57.6178 57.4853C57.7819 57.3701 57.9455 57.2326 58.1049 57.1255C58.2252 57.0448 58.2437 57.0932 58.3935 57.1634C58.5038 57.2152 58.6358 57.312 58.7389 57.3726C58.8927 57.4631 58.8776 57.4699 58.9045 57.6089C58.9145 58.3399 58.7941 58.5445 58.4274 58.8644Z" fill="#002E60"/>
<path fill-rule="evenodd" clip-rule="evenodd" d="M14.9445 55.2414C13.7839 55.3318 12.8155 56.3319 12.9032 57.6172C12.9845 58.8082 14.0329 59.7623 15.3056 59.6639C16.4519 59.5753 17.4304 58.5613 17.3289 57.2712C17.2381 56.1166 16.2214 55.1419 14.9445 55.2414Z" fill="#FDFDFD"/>
<path fill-rule="evenodd" clip-rule="evenodd" d="M13.428 57.5848C13.6692 57.5731 13.9225 57.5464 14.1645 57.5259C14.3723 57.5083 14.3411 57.5449 14.4272 57.3928L14.7219 56.8972C14.8066 56.7549 14.8012 56.7748 14.7153 56.636C14.6099 56.4655 14.4922 56.3153 14.3878 56.1541C14.309 56.0324 14.2549 56.0536 14.0896 56.0592C13.9678 56.0633 13.8479 56.0758 13.7292 56.091C13.5522 56.1136 13.5634 56.1258 13.4839 56.2428C12.8645 57.1553 13.2377 57.0721 13.428 57.5848Z" fill="#002E60"/>
<path fill-rule="evenodd" clip-rule="evenodd" d="M14.804 59.0066C14.8752 59.0922 15.1136 59.2552 15.2376 59.3327C15.4888 59.4899 16.2577 59.0791 16.4351 58.8524C16.5041 58.7643 16.4917 58.6147 16.4946 58.5218C16.4977 58.424 16.5057 58.3279 16.4266 58.2839C16.0591 58.0792 15.9304 58.0159 15.8407 57.9576C15.7219 57.8804 15.6979 57.9179 15.3848 58.0536C15.3025 58.0947 15.2668 58.1083 15.1852 58.1483C15.0558 58.2116 15.0473 58.1995 14.9905 58.4126C14.9374 58.6123 14.8462 58.8175 14.804 59.0066Z" fill="#002E60"/>
<path fill-rule="evenodd" clip-rule="evenodd" d="M16.2556 56.2702C16.2256 56.1407 16.1549 55.9693 16.1065 55.8564C15.9901 55.5839 15.1244 55.4819 14.8492 55.5666C14.7423 55.5995 14.667 55.7295 14.6115 55.804C14.5531 55.8825 14.4917 55.9569 14.5315 56.0381C14.7162 56.416 14.7857 56.5416 14.826 56.6406C14.8794 56.7718 14.9205 56.7548 15.2551 56.8222C15.346 56.8355 15.3833 56.8447 15.473 56.8585C15.6154 56.8804 15.6154 56.8953 15.7838 56.7527C15.9235 56.6344 16.09 56.5296 16.2254 56.4162C16.2817 56.369 16.2724 56.3428 16.2556 56.2702Z" fill="#002E60"/>
<path fill-rule="evenodd" clip-rule="evenodd" d="M13.7756 58.8991C13.8349 58.8607 14.3436 58.9465 14.7576 58.5139L14.908 58.2674C14.9107 58.2642 14.915 58.2584 14.919 58.2542C14.9423 58.1762 14.804 58.0769 14.7007 57.9695C14.3194 57.5728 14.476 57.6382 13.9726 57.6772C13.814 57.6895 13.6247 57.6987 13.47 57.7224C13.4286 57.808 13.3513 58.1315 13.3235 58.2536C13.287 58.4139 13.3722 58.4561 13.5517 58.6662C13.6229 58.7497 13.6761 58.8503 13.7756 58.8991Z" fill="#002E60"/>
<path fill-rule="evenodd" clip-rule="evenodd" d="M13.7756 58.8988C13.8073 58.9595 13.8336 58.9558 13.9072 59.0261C13.9793 59.0949 13.9867 59.0947 14.1143 59.0874C14.2731 59.0783 14.4547 59.0604 14.6033 59.0232C14.7392 58.9891 14.7003 58.9641 14.7958 58.691C14.8412 58.561 14.8909 58.3958 14.919 58.2539C14.9151 58.2581 14.9108 58.2639 14.908 58.2672L14.8595 58.3241C14.4454 58.7566 13.835 58.8604 13.7756 58.8988Z" fill="#002E60"/>
<path fill-rule="evenodd" clip-rule="evenodd" d="M16.6144 58.2594C16.3974 58.1537 16.175 58.0294 15.9607 57.9151C15.7766 57.8171 15.7908 57.8631 15.7716 57.6894L15.6959 57.1178C15.6741 56.9537 15.6712 56.9741 15.8048 56.8803C15.9689 56.7651 16.1325 56.6277 16.2919 56.5206C16.4122 56.4398 16.4307 56.4882 16.5805 56.5585C16.6908 56.6102 16.8228 56.707 16.9259 56.7677C17.0797 56.8582 17.0646 56.865 17.0915 57.0039C17.1015 57.7349 16.9812 57.9395 16.6144 58.2594Z" fill="#002E60"/>
</svg>
