<svg width="34" height="32" viewBox="0 0 34 32" fill="none" xmlns="http://www.w3.org/2000/svg">
<g clip-path="url(#clip0_69_1075)">
<path d="M11.8028 14.8564C11.8028 14.8564 9.81877 15.8012 8.49609 17.2184C8.68505 18.73 9.2519 20.2416 9.81876 21.1864C11.1414 21.3754 12.6531 21.3754 13.9757 21.1864C14.3536 20.4306 14.9205 19.3913 15.2984 17.3128C14.2592 16.0846 12.7475 15.3288 11.8028 14.8564Z" fill="black"/>
<path d="M11.9933 8.05273C6.32467 8.05273 1.69531 12.6826 1.69531 18.3517C1.69531 24.0209 6.32467 28.6507 11.9933 28.6507C17.6619 28.6507 22.2912 24.0209 22.2912 18.3517C22.2912 12.6826 17.6619 8.05273 11.9933 8.05273ZM19.268 24.3044C19.3625 23.6429 19.3625 23.076 19.3625 23.076C18.8901 23.1705 17.1895 23.8319 15.9613 24.0209C15.3944 25.0603 14.2607 26.572 14.0718 26.8555C14.1662 26.95 14.7331 27.1389 15.2055 27.2334C14.1662 27.6114 13.127 27.8004 11.9933 27.8004C10.8596 27.8004 9.72583 27.6114 8.68659 27.1389C9.34792 27.0445 9.9148 26.8555 9.9148 26.8555C9.63137 26.4775 8.49764 25.0602 7.93078 23.9264C6.79706 23.7374 5.002 23.1705 4.6241 22.9816V24.0209C3.3959 22.4146 2.73456 20.5249 2.73456 18.3517V18.0683C3.01799 18.5407 3.30143 18.9187 3.30143 18.9187C3.58486 18.5407 4.52961 17.0289 5.47438 16.0841C5.28543 14.9502 5.28542 13.0605 5.28542 12.6826C5.19094 12.6826 4.81304 12.777 4.43513 12.966C5.66333 11.2652 7.36393 9.94245 9.44242 9.37554C8.97003 9.84797 8.68659 10.2259 8.68659 10.2259C9.15897 10.4149 10.8596 10.8873 12.0878 11.4542C13.127 10.8873 14.9221 10.4149 15.3 10.3204C15.2055 10.2259 14.9221 9.75348 14.6386 9.37554C16.8116 9.94245 18.6066 11.2653 19.9293 13.155C19.3625 12.8715 18.8901 12.777 18.8901 12.777C18.8901 13.2495 18.9846 15.0447 18.7956 16.3675C19.6459 17.2179 20.6851 18.7297 20.8741 19.0131C20.9686 18.9186 21.252 18.5407 21.5354 18.1627V18.5407C21.3465 20.6194 20.5907 22.6981 19.268 24.3044Z" fill="black"/>
<path d="M15.6765 3.70703L11.5195 18.8248H28.2419L32.3044 3.70703H15.6765Z" fill="#1A7DAB"/>
<path d="M18.9844 6.54102V15.9887H20.5905V8.1471H22.9524V15.9887H24.653V6.54102H18.9844Z" fill="white"/>
<path d="M28.9579 2.16997L0.632795 30.497L-0.0351562 29.8299L28.289 1.50195L28.9579 2.16997Z" fill="#007031"/>
</g>
<defs>
<clipPath id="clip0_69_1075">
<rect width="32.5" height="30.8" fill="white" transform="translate(0.75 0.589844)"/>
</clipPath>
</defs>
</svg>
