<svg width="36" height="30" viewBox="0 0 36 30" fill="none" xmlns="http://www.w3.org/2000/svg">
<path d="M12.499 13.79C12.499 13.79 10.3996 14.7898 9 16.2894C9.19995 17.8889 9.79978 19.4885 10.3996 20.4882C11.7992 20.6882 13.3988 20.6882 14.7984 20.4882C15.1983 19.6884 15.7981 18.5887 16.198 16.3893C15.0983 15.0897 13.4988 14.2899 12.499 13.79Z" fill="black"/>
<path d="M12.6976 6.59082C6.69935 6.59082 1.80078 11.49 1.80078 17.489C1.80078 23.488 6.69935 28.3872 12.6976 28.3872C18.6959 28.3872 23.5944 23.488 23.5944 17.489C23.5944 11.49 18.6959 6.59082 12.6976 6.59082ZM20.3954 23.788C20.4954 23.0881 20.4954 22.4882 20.4954 22.4882C19.9955 22.5882 18.196 23.288 16.8964 23.488C16.2966 24.5878 15.0969 26.1876 14.897 26.4875C14.997 26.5875 15.5968 26.7875 16.0966 26.8874C14.9969 27.2874 13.8973 27.4874 12.6976 27.4874C11.498 27.4874 10.2983 27.2874 9.19862 26.7875C9.89842 26.6875 10.4983 26.4875 10.4983 26.4875C10.1984 26.0876 8.99869 24.5878 8.39887 23.388C7.19922 23.1881 5.29977 22.5882 4.89989 22.3882V23.488C3.60026 21.7883 2.90047 19.7886 2.90047 17.489V17.189C3.20038 17.689 3.5003 18.0889 3.5003 18.0889C3.80021 17.689 4.79991 16.0892 5.79962 15.0894C5.59968 13.8896 5.59966 11.8899 5.59966 11.49C5.49969 11.49 5.09982 11.59 4.69993 11.7899C5.99955 9.99024 7.79905 8.59048 9.99841 7.99058C9.49856 8.4905 9.19862 8.89043 9.19862 8.89043C9.69848 9.09039 11.498 9.5903 12.7976 10.1902C13.8973 9.5903 15.7967 9.0904 16.1966 8.99042C16.0966 8.89043 15.7967 8.39052 15.4968 7.99058C17.7961 8.59048 19.6956 9.99025 21.0952 11.9899C20.4953 11.69 19.9955 11.59 19.9955 11.59C19.9955 12.0899 20.0955 13.9896 19.8955 15.3894C20.7953 16.2892 21.8949 17.8889 22.0949 18.1889C22.1948 18.0889 22.4948 17.689 22.7947 17.289V17.689C22.5947 19.8886 21.795 22.0882 20.3954 23.788Z" fill="black"/>
<path d="M16.5979 1.99219L12.1992 17.9895H29.8941L34.1928 1.99219H16.5979Z" fill="#1A7DAB"/>
<path d="M20.0938 4.99121V14.9896H21.7933V6.69091H24.2925V14.9896H26.092V4.99121H20.0938Z" fill="white"/>
</svg>
